<svg width="800" height="400" viewBox="0 0 800 400" fill="none" xmlns="http://www.w3.org/2000/svg">
<path d="M176.02 114.85V116.77C174.612 117.282 173.14 118.402 171.604 120.13C170.068 121.794 168.724 124.482 167.572 128.194L150.676 183.01C150.164 182.946 149.62 182.914 149.044 182.914C148.468 182.914 147.892 182.914 147.316 182.914C146.74 182.914 146.164 182.914 145.588 182.914C145.012 182.914 144.468 182.946 143.956 183.01L123.796 121.954C123.156 119.97 122.356 118.626 121.396 117.922C120.5 117.218 119.54 116.834 118.516 116.77V114.85C120.308 114.914 122.42 114.978 124.852 115.042C127.348 115.106 129.812 115.138 132.244 115.138C135.06 115.138 137.684 115.106 140.116 115.042C142.612 114.978 144.596 114.914 146.068 114.85V116.77C144.148 116.834 142.612 117.058 141.46 117.442C140.372 117.826 139.732 118.562 139.54 119.65C139.412 120.738 139.732 122.466 140.5 124.834L154.132 166.498L151.924 170.434L162.772 135.97C164.308 131.106 165.044 127.298 164.98 124.546C164.916 121.794 164.18 119.842 162.772 118.69C161.364 117.474 159.348 116.834 156.724 116.77V114.85C158.9 114.914 160.948 114.978 162.868 115.042C164.788 115.106 166.708 115.138 168.628 115.138C170.1 115.138 171.444 115.106 172.66 115.042C173.94 114.978 175.06 114.914 176.02 114.85ZM107.476 114.85V116.77C106.196 116.962 105.3 117.442 104.788 118.21C104.276 118.914 104.052 119.874 104.116 121.09C104.244 122.242 104.532 123.49 104.98 124.834L119.668 167.458L117.076 170.914L129.364 135.01L130.708 137.602L115.636 183.01C115.124 182.946 114.58 182.914 114.004 182.914C113.428 182.914 112.852 182.914 112.276 182.914C111.7 182.914 111.124 182.914 110.548 182.914C109.972 182.914 109.428 182.946 108.916 183.01L87.4116 122.914C86.5796 120.546 85.5876 118.946 84.4356 118.114C83.3476 117.282 82.3236 116.834 81.3636 116.77V114.85C83.2836 114.914 85.5556 114.978 88.1796 115.042C90.8036 115.106 93.2996 115.138 95.6676 115.138C98.2276 115.138 100.5 115.106 102.484 115.042C104.532 114.978 106.196 114.914 107.476 114.85ZM204 114.658L227.328 174.754C228.224 177.058 229.216 178.658 230.304 179.554C231.456 180.386 232.48 180.834 233.376 180.898V182.818C231.456 182.69 229.184 182.626 226.56 182.626C224 182.562 221.408 182.53 218.784 182.53C215.84 182.53 213.056 182.562 210.432 182.626C207.808 182.626 205.728 182.69 204.192 182.818V180.898C207.456 180.77 209.504 180.226 210.336 179.266C211.232 178.242 211.04 176.098 209.76 172.834L193.44 128.194L195.168 125.698L180.576 163.714C179.168 167.234 178.304 170.114 177.984 172.354C177.728 174.594 177.888 176.322 178.464 177.538C179.104 178.754 180.096 179.618 181.44 180.13C182.848 180.578 184.512 180.834 186.432 180.898V182.818C184.32 182.69 182.304 182.626 180.384 182.626C178.464 182.562 176.512 182.53 174.528 182.53C173.12 182.53 171.776 182.562 170.496 182.626C169.28 182.626 168.192 182.69 167.232 182.818V180.898C168.576 180.642 169.952 179.778 171.36 178.306C172.768 176.834 174.144 174.338 175.488 170.818L197.376 114.658C198.4 114.722 199.488 114.754 200.64 114.754C201.856 114.754 202.976 114.722 204 114.658ZM210.72 155.17V157.09H182.112L183.072 155.17H210.72ZM287.866 114.85C287.61 118.114 287.418 121.25 287.29 124.258C287.226 127.266 287.194 129.57 287.194 131.17C287.194 132.578 287.226 133.922 287.29 135.202C287.354 136.482 287.418 137.57 287.482 138.466H285.274C284.25 133.09 282.938 128.834 281.338 125.698C279.802 122.562 277.946 120.354 275.77 119.074C273.594 117.73 271.034 117.058 268.09 117.058H265.882V171.874C265.882 174.434 266.138 176.354 266.65 177.634C267.226 178.914 268.25 179.778 269.722 180.226C271.194 180.61 273.338 180.834 276.154 180.898V182.818C274.17 182.754 271.514 182.69 268.186 182.626C264.922 182.562 261.498 182.53 257.914 182.53C254.394 182.53 251.066 182.562 247.93 182.626C244.794 182.69 242.266 182.754 240.346 182.818V180.898C243.226 180.834 245.402 180.61 246.874 180.226C248.346 179.778 249.338 178.914 249.85 177.634C250.362 176.354 250.618 174.434 250.618 171.874V117.058H248.506C245.562 117.058 243.002 117.73 240.826 119.074C238.65 120.354 236.794 122.562 235.258 125.698C233.722 128.77 232.378 133.026 231.226 138.466H229.018C229.146 137.57 229.21 136.482 229.21 135.202C229.274 133.922 229.306 132.578 229.306 131.17C229.306 129.57 229.242 127.266 229.114 124.258C229.05 121.25 228.89 118.114 228.634 114.85C231.578 114.914 234.778 114.978 238.234 115.042C241.754 115.106 245.274 115.138 248.794 115.138C252.314 115.138 255.482 115.138 258.298 115.138C261.178 115.138 264.346 115.138 267.802 115.138C271.322 115.138 274.842 115.106 278.362 115.042C281.882 114.978 285.05 114.914 287.866 114.85ZM344.983 114.85C344.727 117.666 344.535 120.386 344.407 123.01C344.343 125.634 344.311 127.65 344.311 129.058C344.311 130.338 344.343 131.554 344.407 132.706C344.471 133.858 344.535 134.818 344.599 135.586H342.391C341.751 130.914 340.759 127.234 339.415 124.546C338.071 121.794 336.311 119.874 334.135 118.786C332.023 117.634 329.527 117.058 326.647 117.058H322.711C320.855 117.058 319.447 117.218 318.487 117.538C317.527 117.858 316.887 118.498 316.567 119.458C316.247 120.418 316.087 121.89 316.087 123.874V173.794C316.087 175.778 316.247 177.25 316.567 178.21C316.887 179.17 317.527 179.81 318.487 180.13C319.447 180.45 320.855 180.61 322.711 180.61H327.415C330.295 180.61 332.823 180.002 334.999 178.786C337.239 177.506 339.127 175.362 340.663 172.354C342.263 169.346 343.479 165.282 344.311 160.162H346.519C346.327 162.21 346.231 164.898 346.231 168.226C346.231 169.698 346.263 171.778 346.327 174.466C346.391 177.154 346.583 179.938 346.903 182.818C343.639 182.69 339.959 182.626 335.863 182.626C331.767 182.562 328.119 182.53 324.919 182.53C323.319 182.53 321.271 182.53 318.775 182.53C316.279 182.53 313.591 182.562 310.711 182.626C307.831 182.626 304.919 182.658 301.975 182.722C299.031 182.722 296.247 182.754 293.623 182.818V180.898C295.671 180.77 297.207 180.514 298.231 180.13C299.255 179.746 299.927 178.978 300.247 177.826C300.631 176.674 300.823 174.946 300.823 172.642V125.026C300.823 122.658 300.631 120.93 300.247 119.842C299.927 118.69 299.223 117.922 298.135 117.538C297.111 117.09 295.607 116.834 293.623 116.77V114.85C296.247 114.914 299.031 114.978 301.975 115.042C304.919 115.042 307.831 115.074 310.711 115.138C313.591 115.138 316.279 115.138 318.775 115.138C321.271 115.138 323.319 115.138 324.919 115.138C327.863 115.138 331.191 115.138 334.903 115.138C338.679 115.074 342.039 114.978 344.983 114.85ZM330.007 147.682C330.007 147.682 330.007 148.002 330.007 148.642C330.007 149.282 330.007 149.602 330.007 149.602H313.207C313.207 149.602 313.207 149.282 313.207 148.642C313.207 148.002 313.207 147.682 313.207 147.682H330.007ZM332.791 135.01C332.535 138.658 332.407 141.442 332.407 143.362C332.471 145.282 332.503 147.042 332.503 148.642C332.503 150.242 332.535 152.002 332.599 153.922C332.663 155.842 332.823 158.626 333.079 162.274H330.871C330.551 160.034 329.943 157.954 329.047 156.034C328.215 154.114 326.999 152.578 325.399 151.426C323.799 150.21 321.719 149.602 319.159 149.602V147.682C321.079 147.682 322.711 147.298 324.055 146.53C325.399 145.698 326.487 144.642 327.319 143.362C328.215 142.018 328.919 140.61 329.431 139.138C329.943 137.666 330.327 136.29 330.583 135.01H332.791ZM354.467 114.85C356.067 114.914 358.211 114.978 360.899 115.042C363.651 115.106 366.371 115.138 369.059 115.138C372.131 115.138 375.107 115.106 377.987 115.042C380.867 114.978 382.915 114.946 384.131 114.946C390.083 114.946 395.011 115.618 398.915 116.962C402.883 118.242 405.827 120.13 407.747 122.626C409.731 125.122 410.723 128.13 410.723 131.65C410.723 133.826 410.275 136.034 409.379 138.274C408.483 140.45 406.947 142.498 404.771 144.418C402.659 146.274 399.747 147.778 396.035 148.93C392.323 150.018 387.651 150.562 382.019 150.562H372.803V148.642H381.059C384.835 148.642 387.683 147.938 389.603 146.53C391.587 145.058 392.931 143.138 393.635 140.77C394.403 138.338 394.787 135.65 394.787 132.706C394.787 127.65 393.891 123.746 392.099 120.994C390.307 118.178 387.235 116.77 382.883 116.77C380.387 116.77 378.755 117.314 377.987 118.402C377.283 119.49 376.931 121.698 376.931 125.026V172.642C376.931 174.946 377.091 176.674 377.411 177.826C377.795 178.978 378.499 179.746 379.523 180.13C380.547 180.514 382.083 180.77 384.131 180.898V182.818C382.403 182.69 380.227 182.626 377.603 182.626C374.979 182.562 372.323 182.53 369.635 182.53C366.563 182.53 363.651 182.562 360.899 182.626C358.211 182.626 356.067 182.69 354.467 182.818V180.898C356.515 180.77 358.051 180.514 359.075 180.13C360.099 179.746 360.771 178.978 361.091 177.826C361.475 176.674 361.667 174.946 361.667 172.642V125.026C361.667 122.658 361.475 120.93 361.091 119.842C360.771 118.69 360.067 117.922 358.979 117.538C357.955 117.09 356.451 116.834 354.467 116.77V114.85ZM372.611 148.93C375.363 148.994 377.731 149.122 379.715 149.314C381.763 149.506 383.555 149.698 385.091 149.89C386.627 150.018 388.003 150.114 389.219 150.178C395.043 150.69 399.331 151.938 402.083 153.922C404.899 155.906 406.723 158.882 407.555 162.85L409.763 172.738C410.339 175.298 410.947 177.09 411.587 178.114C412.227 179.138 413.155 179.65 414.371 179.65C415.203 179.586 415.875 179.394 416.387 179.074C416.963 178.69 417.571 178.146 418.211 177.442L419.555 178.594C417.827 180.578 415.971 181.986 413.987 182.818C412.003 183.714 409.603 184.162 406.787 184.162C403.331 184.162 400.483 183.426 398.243 181.954C396.003 180.482 394.531 177.762 393.827 173.794L392.099 164.194C391.651 161.506 391.107 159.17 390.467 157.186C389.827 155.138 388.931 153.538 387.779 152.386C386.691 151.17 385.155 150.562 383.171 150.562H372.803L372.611 148.93ZM472.296 114.85C472.04 117.73 471.848 120.514 471.72 123.202C471.656 125.89 471.624 127.97 471.624 129.442C471.624 130.85 471.656 132.194 471.72 133.474C471.784 134.754 471.848 135.842 471.912 136.738H469.704C468.872 131.746 467.72 127.842 466.248 125.026C464.776 122.146 462.952 120.098 460.776 118.882C458.664 117.666 456.136 117.058 453.192 117.058H450.024C448.168 117.058 446.76 117.218 445.8 117.538C444.84 117.858 444.2 118.498 443.88 119.458C443.56 120.418 443.4 121.89 443.4 123.874V172.066C443.4 174.562 443.656 176.418 444.168 177.634C444.68 178.85 445.672 179.65 447.144 180.034C448.616 180.418 450.792 180.642 453.672 180.706V182.818C451.688 182.754 449.128 182.69 445.992 182.626C442.856 182.562 439.56 182.53 436.104 182.53C433.352 182.53 430.664 182.562 428.04 182.626C425.416 182.69 423.048 182.754 420.936 182.818V180.898C422.984 180.77 424.52 180.514 425.544 180.13C426.568 179.746 427.24 178.978 427.56 177.826C427.944 176.674 428.136 174.946 428.136 172.642V125.026C428.136 122.658 427.944 120.93 427.56 119.842C427.24 118.69 426.536 117.922 425.448 117.538C424.424 117.09 422.92 116.834 420.936 116.77V114.85C423.56 114.914 426.344 114.978 429.288 115.042C432.232 115.042 435.144 115.074 438.024 115.138C440.904 115.138 443.592 115.138 446.088 115.138C448.584 115.138 450.632 115.138 452.232 115.138C455.176 115.138 458.504 115.138 462.216 115.138C465.992 115.074 469.352 114.978 472.296 114.85ZM457.992 148.066C457.992 148.066 457.992 148.386 457.992 149.026C457.992 149.666 457.992 149.986 457.992 149.986H440.52C440.52 149.986 440.52 149.666 440.52 149.026C440.52 148.386 440.52 148.066 440.52 148.066H457.992ZM460.392 135.394C460.136 139.042 460.008 141.826 460.008 143.746C460.072 145.666 460.104 147.426 460.104 149.026C460.104 150.626 460.136 152.386 460.2 154.306C460.264 156.226 460.424 159.01 460.68 162.658H458.472C458.088 160.418 457.48 158.338 456.648 156.418C455.816 154.498 454.6 152.962 453 151.81C451.4 150.594 449.32 149.986 446.76 149.986V148.066C448.68 148.066 450.28 147.682 451.56 146.914C452.904 146.082 454.024 145.026 454.92 143.746C455.816 142.402 456.52 140.994 457.032 139.522C457.544 138.05 457.928 136.674 458.184 135.394H460.392ZM477.748 114.85C479.348 114.914 481.492 114.978 484.18 115.042C486.932 115.106 489.652 115.138 492.34 115.138C495.412 115.138 498.388 115.106 501.268 115.042C504.148 114.978 506.196 114.946 507.412 114.946C513.364 114.946 518.292 115.618 522.196 116.962C526.164 118.242 529.108 120.13 531.028 122.626C533.012 125.122 534.004 128.13 534.004 131.65C534.004 133.826 533.556 136.034 532.66 138.274C531.764 140.45 530.228 142.498 528.052 144.418C525.94 146.274 523.028 147.778 519.316 148.93C515.604 150.018 510.932 150.562 505.3 150.562H496.084V148.642H504.34C508.116 148.642 510.964 147.938 512.884 146.53C514.868 145.058 516.212 143.138 516.916 140.77C517.684 138.338 518.068 135.65 518.068 132.706C518.068 127.65 517.172 123.746 515.38 120.994C513.588 118.178 510.516 116.77 506.164 116.77C503.668 116.77 502.036 117.314 501.268 118.402C500.564 119.49 500.212 121.698 500.212 125.026V172.642C500.212 174.946 500.372 176.674 500.692 177.826C501.076 178.978 501.78 179.746 502.804 180.13C503.828 180.514 505.364 180.77 507.412 180.898V182.818C505.684 182.69 503.508 182.626 500.884 182.626C498.26 182.562 495.604 182.53 492.916 182.53C489.844 182.53 486.932 182.562 484.18 182.626C481.492 182.626 479.348 182.69 477.748 182.818V180.898C479.796 180.77 481.332 180.514 482.356 180.13C483.38 179.746 484.052 178.978 484.372 177.826C484.756 176.674 484.948 174.946 484.948 172.642V125.026C484.948 122.658 484.756 120.93 484.372 119.842C484.052 118.69 483.348 117.922 482.26 117.538C481.236 117.09 479.732 116.834 477.748 116.77V114.85ZM495.892 148.93C498.644 148.994 501.012 149.122 502.996 149.314C505.044 149.506 506.836 149.698 508.372 149.89C509.908 150.018 511.284 150.114 512.5 150.178C518.324 150.69 522.612 151.938 525.364 153.922C528.18 155.906 530.004 158.882 530.836 162.85L533.044 172.738C533.62 175.298 534.228 177.09 534.868 178.114C535.508 179.138 536.436 179.65 537.652 179.65C538.484 179.586 539.156 179.394 539.668 179.074C540.244 178.69 540.852 178.146 541.492 177.442L542.836 178.594C541.108 180.578 539.252 181.986 537.268 182.818C535.284 183.714 532.884 184.162 530.068 184.162C526.612 184.162 523.764 183.426 521.524 181.954C519.284 180.482 517.812 177.762 517.108 173.794L515.38 164.194C514.932 161.506 514.388 159.17 513.748 157.186C513.108 155.138 512.212 153.538 511.06 152.386C509.972 151.17 508.436 150.562 506.452 150.562H496.084L495.892 148.93ZM579.065 113.506C585.849 113.506 591.769 114.882 596.825 117.634C601.945 120.386 605.913 124.354 608.729 129.538C611.545 134.658 612.953 140.898 612.953 148.258C612.953 155.426 611.513 161.698 608.633 167.074C605.753 172.45 601.721 176.642 596.537 179.65C591.417 182.658 585.561 184.162 578.969 184.162C572.185 184.162 566.233 182.786 561.113 180.034C556.057 177.282 552.121 173.314 549.305 168.13C546.489 162.946 545.081 156.706 545.081 149.41C545.081 142.242 546.521 135.97 549.401 130.594C552.345 125.218 556.345 121.026 561.401 118.018C566.521 115.01 572.409 113.506 579.065 113.506ZM578.681 115.234C575.097 115.234 571.961 116.674 569.273 119.554C566.649 122.434 564.601 126.402 563.129 131.458C561.721 136.514 561.017 142.37 561.017 149.026C561.017 155.81 561.817 161.73 563.417 166.786C565.081 171.778 567.289 175.65 570.041 178.402C572.857 181.09 575.961 182.434 579.353 182.434C582.937 182.434 586.041 180.994 588.665 178.114C591.353 175.234 593.401 171.266 594.809 166.21C596.281 161.09 597.017 155.234 597.017 148.642C597.017 141.794 596.185 135.874 594.521 130.882C592.921 125.89 590.713 122.05 587.897 119.362C585.145 116.61 582.073 115.234 578.681 115.234ZM682.856 114.85V116.77C680.808 117.026 679.272 117.57 678.248 118.402C677.224 119.17 676.52 120.418 676.136 122.146C675.816 123.874 675.656 126.306 675.656 129.442V183.01C674.888 182.946 674.088 182.914 673.256 182.914C672.488 182.914 671.656 182.946 670.76 183.01L629.096 130.21V167.074C629.096 170.594 629.288 173.314 629.672 175.234C630.056 177.09 630.888 178.434 632.168 179.266C633.512 180.034 635.592 180.578 638.408 180.898V182.818C637.192 182.69 635.592 182.626 633.608 182.626C631.624 182.562 629.768 182.53 628.04 182.53C626.568 182.53 625.064 182.562 623.528 182.626C621.992 182.626 620.712 182.69 619.688 182.818V180.898C621.736 180.578 623.272 180.034 624.296 179.266C625.32 178.498 625.992 177.25 626.312 175.522C626.696 173.73 626.888 171.298 626.888 168.226V125.026C626.888 122.658 626.696 120.93 626.312 119.842C625.992 118.69 625.288 117.922 624.2 117.538C623.176 117.09 621.672 116.834 619.688 116.77V114.85C620.712 114.914 621.992 114.978 623.528 115.042C625.064 115.106 626.568 115.138 628.04 115.138C629.576 115.138 631.048 115.106 632.456 115.042C633.864 114.978 635.144 114.914 636.296 114.85L673.448 160.642V130.594C673.448 127.074 673.256 124.386 672.872 122.53C672.488 120.61 671.624 119.234 670.28 118.402C669 117.57 666.952 117.026 664.136 116.77V114.85C665.352 114.914 666.952 114.978 668.936 115.042C670.92 115.106 672.776 115.138 674.504 115.138C676.04 115.138 677.544 115.106 679.016 115.042C680.552 114.978 681.832 114.914 682.856 114.85ZM747.241 114.85C746.985 118.114 746.793 121.25 746.665 124.258C746.601 127.266 746.569 129.57 746.569 131.17C746.569 132.578 746.601 133.922 746.665 135.202C746.729 136.482 746.793 137.57 746.857 138.466H744.649C743.625 133.09 742.313 128.834 740.713 125.698C739.177 122.562 737.321 120.354 735.145 119.074C732.969 117.73 730.409 117.058 727.465 117.058H725.257V171.874C725.257 174.434 725.513 176.354 726.025 177.634C726.601 178.914 727.625 179.778 729.097 180.226C730.569 180.61 732.713 180.834 735.529 180.898V182.818C733.545 182.754 730.889 182.69 727.561 182.626C724.297 182.562 720.873 182.53 717.289 182.53C713.769 182.53 710.441 182.562 707.305 182.626C704.169 182.69 701.641 182.754 699.721 182.818V180.898C702.601 180.834 704.777 180.61 706.249 180.226C707.721 179.778 708.713 178.914 709.225 177.634C709.737 176.354 709.993 174.434 709.993 171.874V117.058H707.881C704.937 117.058 702.377 117.73 700.201 119.074C698.025 120.354 696.169 122.562 694.633 125.698C693.097 128.77 691.753 133.026 690.601 138.466H688.393C688.521 137.57 688.585 136.482 688.585 135.202C688.649 133.922 688.681 132.578 688.681 131.17C688.681 129.57 688.617 127.266 688.489 124.258C688.425 121.25 688.265 118.114 688.009 114.85C690.953 114.914 694.153 114.978 697.609 115.042C701.129 115.106 704.649 115.138 708.169 115.138C711.689 115.138 714.857 115.138 717.673 115.138C720.553 115.138 723.721 115.138 727.177 115.138C730.697 115.138 734.217 115.106 737.737 115.042C741.257 114.978 744.425 114.914 747.241 114.85Z" fill="#003366"/>
<path opacity="0.7" d="M54 206.759C134 186.759 214 226.759 294 206.759C374 186.759 454 226.759 534 206.759C614 186.759 694 226.759 774 206.759" stroke="#8BA3D4" stroke-width="2"/>
<path d="M108.142 269L100.59 246.6H103.022L110.094 267.688H108.878L116.174 246.6H118.35L125.55 267.688H124.398L131.534 246.6H133.806L126.254 269H123.758L116.878 249H117.518L110.606 269H108.142ZM154.532 246.6H156.868V269H154.532V246.6ZM140.516 269H138.148V246.6H140.516V269ZM154.756 258.664H140.26V256.584H154.756V258.664ZM166.291 256.616H178.131V258.632H166.291V256.616ZM166.547 266.952H180.019V269H164.179V246.6H179.539V248.648H166.547V266.952ZM185.586 269V246.6H193.97C195.868 246.6 197.5 246.909 198.866 247.528C200.231 248.125 201.276 249 202.002 250.152C202.748 251.283 203.122 252.659 203.122 254.28C203.122 255.859 202.748 257.224 202.002 258.376C201.276 259.507 200.231 260.381 198.866 261C197.5 261.597 195.868 261.896 193.97 261.896H186.898L187.954 260.808V269H185.586ZM200.882 269L195.122 260.872H197.682L203.474 269H200.882ZM187.954 261L186.898 259.88H193.906C196.146 259.88 197.842 259.389 198.994 258.408C200.167 257.427 200.753 256.051 200.753 254.28C200.753 252.488 200.167 251.101 198.994 250.12C197.842 249.139 196.146 248.648 193.906 248.648H186.898L187.954 247.528V261ZM210.823 256.616H222.663V258.632H210.823V256.616ZM211.079 266.952H224.551V269H208.711V246.6H224.071V248.648H211.079V266.952ZM238.492 269V246.6H240.86V266.952H253.404V269H238.492ZM265.953 269.192C263.095 269.192 260.844 268.371 259.201 266.728C257.559 265.085 256.737 262.653 256.737 259.432V246.6H259.105V259.336C259.105 261.981 259.703 263.933 260.897 265.192C262.092 266.451 263.777 267.08 265.953 267.08C268.151 267.08 269.847 266.451 271.041 265.192C272.236 263.933 272.833 261.981 272.833 259.336V246.6H275.137V259.432C275.137 262.653 274.316 265.085 272.673 266.728C271.052 268.371 268.812 269.192 265.953 269.192ZM278.857 269L288.041 256.584V258.408L279.401 246.6H282.121L289.385 256.456L288.329 256.488L295.593 246.6H298.153L289.609 258.248V256.584L298.761 269H296.009L288.265 258.472H289.257L281.577 269H278.857ZM311.672 269.192C308.813 269.192 306.563 268.371 304.92 266.728C303.277 265.085 302.456 262.653 302.456 259.432V246.6H304.824V259.336C304.824 261.981 305.421 263.933 306.616 265.192C307.811 266.451 309.496 267.08 311.672 267.08C313.869 267.08 315.565 266.451 316.76 265.192C317.955 263.933 318.552 261.981 318.552 259.336V246.6H320.856V259.432C320.856 262.653 320.035 265.085 318.392 266.728C316.771 268.371 314.531 269.192 311.672 269.192ZM327.992 269V246.6H336.376C338.274 246.6 339.906 246.909 341.272 247.528C342.637 248.125 343.682 249 344.408 250.152C345.154 251.283 345.528 252.659 345.528 254.28C345.528 255.859 345.154 257.224 344.408 258.376C343.682 259.507 342.637 260.381 341.272 261C339.906 261.597 338.274 261.896 336.376 261.896H329.304L330.36 260.808V269H327.992ZM343.288 269L337.528 260.872H340.088L345.88 269H343.288ZM330.36 261L329.304 259.88H336.312C338.552 259.88 340.248 259.389 341.4 258.408C342.573 257.427 343.16 256.051 343.16 254.28C343.16 252.488 342.573 251.101 341.4 250.12C340.248 249.139 338.552 248.648 336.312 248.648H329.304L330.36 247.528V261ZM356.148 269V260.68L356.692 262.152L347.188 246.6H349.716L358.068 260.264H356.724L365.076 246.6H367.444L357.94 262.152L358.484 260.68V269H356.148ZM379.492 269V246.6H381.444L391.684 264.072H390.66L400.804 246.6H402.756V269H400.484V250.152H401.028L391.684 266.152H390.564L381.156 250.152H381.764V269H379.492ZM412.166 256.616H424.006V258.632H412.166V256.616ZM412.422 266.952H425.894V269H410.054V246.6H425.414V248.648H412.422V266.952ZM433.573 256.616H445.413V258.632H433.573V256.616ZM433.829 266.952H447.301V269H431.461V246.6H446.821V248.648H433.829V266.952ZM457.219 269V248.648H449.347V246.6H467.459V248.648H459.587V269H457.219ZM477.074 269.192C475.41 269.192 473.81 268.925 472.274 268.392C470.759 267.837 469.586 267.133 468.754 266.28L469.682 264.456C470.471 265.224 471.527 265.875 472.85 266.408C474.194 266.92 475.602 267.176 477.074 267.176C478.482 267.176 479.623 267.005 480.498 266.664C481.394 266.301 482.045 265.821 482.45 265.224C482.877 264.627 483.09 263.965 483.09 263.24C483.09 262.365 482.834 261.661 482.322 261.128C481.831 260.595 481.181 260.179 480.37 259.88C479.559 259.56 478.663 259.283 477.682 259.048C476.701 258.813 475.719 258.568 474.738 258.312C473.757 258.035 472.85 257.672 472.018 257.224C471.207 256.776 470.546 256.189 470.034 255.464C469.543 254.717 469.298 253.747 469.298 252.552C469.298 251.443 469.586 250.429 470.162 249.512C470.759 248.573 471.666 247.827 472.882 247.272C474.098 246.696 475.655 246.408 477.554 246.408C478.813 246.408 480.061 246.589 481.298 246.952C482.535 247.293 483.602 247.773 484.498 248.392L483.698 250.28C482.738 249.64 481.714 249.171 480.626 248.872C479.559 248.573 478.525 248.424 477.522 248.424C476.178 248.424 475.069 248.605 474.194 248.968C473.319 249.331 472.669 249.821 472.242 250.44C471.837 251.037 471.634 251.72 471.634 252.488C471.634 253.363 471.879 254.067 472.37 254.6C472.882 255.133 473.543 255.549 474.354 255.848C475.186 256.147 476.093 256.413 477.074 256.648C478.055 256.883 479.026 257.139 479.986 257.416C480.967 257.693 481.863 258.056 482.674 258.504C483.506 258.931 484.167 259.507 484.658 260.232C485.17 260.957 485.426 261.907 485.426 263.08C485.426 264.168 485.127 265.181 484.53 266.12C483.933 267.037 483.015 267.784 481.778 268.36C480.562 268.915 478.994 269.192 477.074 269.192ZM503.312 269V248.648H495.441V246.6H513.553V248.648H505.681V269H503.312ZM533.72 246.6H536.056V269H533.72V246.6ZM519.704 269H517.336V246.6H519.704V269ZM533.944 258.664H519.448V256.584H533.944V258.664ZM545.479 256.616H557.319V258.632H545.479V256.616ZM545.735 266.952H559.207V269H543.367V246.6H558.727V248.648H545.735V266.952ZM589.532 246.6H591.868V269H589.532V246.6ZM575.516 269H573.148V246.6H575.516V269ZM589.756 258.664H575.26V256.584H589.756V258.664ZM608.971 269.192C607.286 269.192 605.718 268.915 604.267 268.36C602.838 267.784 601.59 266.984 600.523 265.96C599.478 264.915 598.657 263.709 598.059 262.344C597.483 260.957 597.195 259.443 597.195 257.8C597.195 256.157 597.483 254.653 598.059 253.288C598.657 251.901 599.478 250.696 600.523 249.672C601.59 248.627 602.838 247.827 604.267 247.272C605.697 246.696 607.265 246.408 608.971 246.408C610.657 246.408 612.214 246.696 613.643 247.272C615.073 247.827 616.31 248.616 617.355 249.64C618.422 250.664 619.243 251.869 619.819 253.256C620.417 254.643 620.715 256.157 620.715 257.8C620.715 259.443 620.417 260.957 619.819 262.344C619.243 263.731 618.422 264.936 617.355 265.96C616.31 266.984 615.073 267.784 613.643 268.36C612.214 268.915 610.657 269.192 608.971 269.192ZM608.971 267.08C610.315 267.08 611.553 266.856 612.683 266.408C613.835 265.939 614.827 265.288 615.659 264.456C616.513 263.603 617.174 262.621 617.643 261.512C618.113 260.381 618.347 259.144 618.347 257.8C618.347 256.456 618.113 255.229 617.643 254.12C617.174 252.989 616.513 252.008 615.659 251.176C614.827 250.323 613.835 249.672 612.683 249.224C611.553 248.755 610.315 248.52 608.971 248.52C607.627 248.52 606.379 248.755 605.227 249.224C604.075 249.672 603.073 250.323 602.219 251.176C601.387 252.008 600.726 252.989 600.235 254.12C599.766 255.229 599.531 256.456 599.531 257.8C599.531 259.123 599.766 260.349 600.235 261.48C600.726 262.611 601.387 263.603 602.219 264.456C603.073 265.288 604.075 265.939 605.227 266.408C606.379 266.856 607.627 267.08 608.971 267.08ZM626.023 269V246.6H634.407C636.306 246.6 637.938 246.909 639.303 247.528C640.668 248.125 641.714 249 642.439 250.152C643.186 251.283 643.559 252.659 643.559 254.28C643.559 255.859 643.186 257.224 642.439 258.376C641.714 259.507 640.668 260.381 639.303 261C637.938 261.597 636.306 261.896 634.407 261.896H627.335L628.391 260.808V269H626.023ZM641.319 269L635.559 260.872H638.119L643.911 269H641.319ZM628.391 261L627.335 259.88H634.343C636.583 259.88 638.279 259.389 639.431 258.408C640.604 257.427 641.191 256.051 641.191 254.28C641.191 252.488 640.604 251.101 639.431 250.12C638.279 249.139 636.583 248.648 634.343 248.648H627.335L628.391 247.528V261ZM649.148 269V246.6H651.516V269H649.148ZM656.596 269V267.368L672.148 247.752L672.404 248.648H656.82V246.6H674.58V248.232L659.06 267.848L658.772 266.952H674.964V269H656.596ZM689.159 269.192C687.473 269.192 685.905 268.915 684.455 268.36C683.025 267.784 681.777 266.984 680.711 265.96C679.665 264.915 678.844 263.709 678.247 262.344C677.671 260.957 677.383 259.443 677.383 257.8C677.383 256.157 677.671 254.653 678.247 253.288C678.844 251.901 679.665 250.696 680.711 249.672C681.777 248.627 683.025 247.827 684.455 247.272C685.884 246.696 687.452 246.408 689.159 246.408C690.844 246.408 692.401 246.696 693.831 247.272C695.26 247.827 696.497 248.616 697.543 249.64C698.609 250.664 699.431 251.869 700.007 253.256C700.604 254.643 700.903 256.157 700.903 257.8C700.903 259.443 700.604 260.957 700.007 262.344C699.431 263.731 698.609 264.936 697.543 265.96C696.497 266.984 695.26 267.784 693.831 268.36C692.401 268.915 690.844 269.192 689.159 269.192ZM689.159 267.08C690.503 267.08 691.74 266.856 692.871 266.408C694.023 265.939 695.015 265.288 695.847 264.456C696.7 263.603 697.361 262.621 697.831 261.512C698.3 260.381 698.535 259.144 698.535 257.8C698.535 256.456 698.3 255.229 697.831 254.12C697.361 252.989 696.7 252.008 695.847 251.176C695.015 250.323 694.023 249.672 692.871 249.224C691.74 248.755 690.503 248.52 689.159 248.52C687.815 248.52 686.567 248.755 685.415 249.224C684.263 249.672 683.26 250.323 682.407 251.176C681.575 252.008 680.913 252.989 680.423 254.12C679.953 255.229 679.719 256.456 679.719 257.8C679.719 259.123 679.953 260.349 680.423 261.48C680.913 262.611 681.575 263.603 682.407 264.456C683.26 265.288 684.263 265.939 685.415 266.408C686.567 266.856 687.815 267.08 689.159 267.08ZM706.211 269V246.6H708.163L723.619 266.056H722.595V246.6H724.931V269H722.979L707.555 249.544H708.579V269H706.211Z" fill="#1B3F8B"/>
</svg>
